  <svg xmlns='http://www.w3.org/2000/svg' viewBox='0 0 24 24'>
    <symbol id='add_o' viewBox='0 0 24 24'>
      <path d='M13 7h-2v4H7v2h4v4h2v-4h4v-2h-4V7zm-1-5C6.48 2 2 6.48 2 12s4.48 10 10 10 10-4.48 10-10S17.52 2 12 2zm0 18c-4.41 0-8-3.59-8-8s3.59-8 8-8 8 3.59 8 8-3.59 8-8 8z' />
    </symbol>
    <symbol id='arrow_back' viewBox='0 0 24 24'>
      <path d='M20 11H7.83l5.59-5.59L12 4l-8 8 8 8 1.41-1.41L7.83 13H20v-2z' />
    </symbol>
    <symbol id='arrow_down' viewBox='0 0 24 24'>
      <!-- <path d='M7 10l5 5 5-5z' /> -->
      <path d='M8.11997 9.29006L12 13.1701L15.88 9.29006C16.27 8.90006 16.9 8.90006 17.29 9.29006C17.68 9.68006 17.68 10.3101 17.29 10.7001L12.7 15.2901C12.31 15.6801 11.68 15.6801 11.29 15.2901L6.69997 10.7001C6.30997 10.3101 6.30997 9.68006 6.69997 9.29006C7.08997 8.91006 7.72997 8.90006 8.11997 9.29006Z' />
    </symbol>
    <symbol id='arrow_up' viewBox='0 0 24 24'>
      <path d='M7 14l5-5 5 5z' />
    </symbol>
    <symbol id='arrow_right' viewBox='0 0 24 24'>
      <path d='M6.5 5.5 11 10l-4.5 4.5L8 16l6-6-6-6-1.5 1.5z' />
    </symbol>
    <symbol id='close' viewBox='0 0 24 24'>
      <path d='M19 6.41L17.59 5 12 10.59 6.41 5 5 6.41 10.59 12 5 17.59 6.41 19 12 13.41 17.59 19 19 17.59 13.41 12 19 6.41z' />
    </symbol>
    <symbol id='delete' viewBox='0 0 24 24'>
      <path d='M6 19c0 1.1.9 2 2 2h8c1.1 0 2-.9 2-2V7H6v12zM19 4h-3.5l-1-1h-5l-1 1H5v2h14V4z' />
    </symbol>
    <symbol id='edit' viewBox='0 0 24 24'>
      <path d='M3 17.25V21h3.75L17.81 9.94L19 8.13L5.12 18.91L3 17.25zM20.5 2.5L12.75 10.25 10.5 8 2 18h16L20.5 2.5zM4.12 18.91L12 11.13V19h2V10.5L5.25 18.69L4.12 18.91z' />
    </symbol>
    <symbol id='favorite' viewBox='0 0 24 24'>
      <path d='M16.5 3C14.76 3 13.5 4.26 13.5 6c0 1.38.48 2.76 1.35 3.94l2.56 3.77c.45.67 1.27.67 1.72 0l2.56-3.77C20.02 11.76 20.5 10.38 20.5 9c0-2.76-2.24-5-5-5zm0 9c-1.66 0-3-1.34-3-3s1.34-3 3-3 3 1.34 3 3-1.34 3-3 3zm-3-7c-2.76 0-5 2.24-5 5s2.24 5 5 5 5-2.24 5-5-2.24-5-5-5z' />
    </symbol>
    <symbol id='favorite_border' viewBox='0 0 24 24'>
      <path d='M16.5 3C14.76 3 13.5 4.26 13.5 6c0 1.38.48 2.76 1.35 3.94l2.56 3.77c.45.67 1.27.67 1.72 0l2.56-3.77C20.02 11.76 20.5 10.38 20.5 9c0-2.76-2.24-5-5-5zm0 9c-1.66 0-3-1.34-3-3s1.34-3 3-3 3 1.34 3 3-1.34 3-3 3zm-3-7c-2.76 0-5 2.24-5 5s2.24 5 5 5 5-2.24 5-5-2.24-5-5-5z' />
    </symbol>
    <symbol id='home' viewBox='0 0 24 24'>
      <path d='M10 20v-6h4v6h5v-8h3L12 3 2 12h3v8z' />
    </symbol>
    <symbol id='home_border' viewBox='0 0 24 24'>
      <path d='M10 20v-6h4v6h5v-8h3L12 3 2 12h3v8z' />
    </symbol>
    <symbol id='logout' viewBox='0 0 24 24'>
      <path d='M10 20v-6h4v6h5v-8h3L12 3 2 12h3v8z' />
    </symbol>
    <!-- OK -->
    <symbol id='diff' viewBox="0 -960 960 960">
      <path d="M280-280 80-480l200-200 56 56-103 104h494L624-624l56-56 200 200-200 200-56-56 103-104H233l103 104-56 56Z"/>
    </symbol>
    <symbol id='finish' viewBox="0 -960 960 960">
      <path d="M360-720h80v-80h-80v80Zm160 0v-80h80v80h-80ZM360-400v-80h80v80h-80Zm320-160v-80h80v80h-80Zm0 160v-80h80v80h-80Zm-160 0v-80h80v80h-80Zm160-320v-80h80v80h-80Zm-240 80v-80h80v80h-80ZM200-160v-640h80v80h80v80h-80v80h80v80h-80v320h-80Zm400-320v-80h80v80h-80Zm-160 0v-80h80v80h-80Zm-80-80v-80h80v80h-80Zm160 0v-80h80v80h-80Zm80-80v-80h80v80h-80Z"/>
    </symbol>
    <symbol id='menu' viewBox='0 0 24 24'>
      <path d='M0 4C0 2.89543 0.89543 2 2 2H22C23.1046 2 24 2.89543 24 4C24 5.10457 23.1046 6 22 6H2C0.895431 6 0 5.10457 0 4ZM0 12C0 10.8954 0.89543 10 2 10H22C23.1046 10 24 10.8954 24 12C24 13.1046 23.1046 14 22 14H2C0.895431 14 0 13.1046 0 12ZM24 20C24 18.8954 23.1046 18 22 18H2C0.895431 18 0 18.8954 0 20C0 21.1046 0.89543 22 2 22H22C23.1046 22 24 21.1046 24 20Z' />
    </symbol>
    <symbol id='search' viewBox='0 0 24 24'>
      <path
        fillRule='evenodd'
        clipRule='evenodd'
        d='M16.296 16.996a8 8 0 11.707-.708l3.909 3.91-.707.707-3.909-3.909zM18 11a7 7 0 00-14 0 7 7 0 1014 0z'
      />
    </symbol>
    <symbol id='star' viewBox="0 -960 960 960">
      <path d="m305-704 112-145q12-16 28.5-23.5T480-880q18 0 34.5 7.5T543-849l112 145 170 57q26 8 41 29.5t15 47.5q0 12-3.5 24T866-523L756-367l4 164q1 35-23 59t-56 24q-2 0-22-3l-179-50-179 50q-5 2-11 2.5t-11 .5q-32 0-56-24t-23-59l4-165L95-523q-8-11-11.5-23T80-570q0-25 14.5-46.5T135-647l170-57Zm49 69-194 64 124 179-4 191 200-55 200 56-4-192 124-177-194-66-126-165-126 165Zm126 135Z"/>
    </symbol>
    <symbol id='trend' viewBox="0 -960 960 960">
      <path d="m136-240-56-56 296-298 160 160 208-206H640v-80h240v240h-80v-104L536-320 376-480 136-240Z"/>
    </symbol>
    <symbol id='tultip' viewBox='0 0 24 24'>
      <path d='M24 12C24 18.6274 18.6274 24 12 24C5.37258 24 0 18.6274 0 12C0 5.37258 5.37258 0 12 0C18.6274 0 24 5.37258 24 12ZM13.3563 14.4459C13.4384 14.3655 13.4844 14.2565 13.4844 14.1429C13.4844 13.1804 14.0275 12.5958 14.609 11.9698C15.279 11.2485 16 10.4723 16 9C16 7.34309 14.4331 6 12.5001 6C10.5671 6 9.0002 7.34311 9.0002 9C8.99668 9.32803 9.03911 9.65498 9.12632 9.97171C9.15227 10.0623 9.20778 10.142 9.28437 10.1987C9.36095 10.2554 9.45439 10.286 9.55039 10.2857H10.4388C10.5084 10.2857 10.577 10.2695 10.6388 10.2382C10.7006 10.2069 10.7539 10.1616 10.7942 10.106C10.8344 10.0505 10.8605 9.98625 10.8702 9.91877C10.88 9.85128 10.8731 9.7825 10.8501 9.71817C10.7752 9.48604 10.7398 9.24339 10.7455 9C10.7455 8.28994 11.5723 7.71429 12.418 7.71429C13.2637 7.71429 14.0859 8.28991 14.0859 9C14.0859 9.99075 13.556 10.5562 12.9879 11.1624C12.3319 11.8624 11.625 12.6167 11.625 14.1429C11.625 14.2565 11.6711 14.3655 11.7532 14.4459C11.8352 14.5263 11.9465 14.5714 12.0625 14.5714H13.047C13.163 14.5714 13.2743 14.5263 13.3563 14.4459ZM13.1482 15.9069C12.9564 15.7813 12.7308 15.7143 12.5001 15.7143C12.3469 15.7143 12.1952 15.7438 12.0536 15.8013C11.9121 15.8587 11.7835 15.9429 11.6752 16.049C11.5668 16.1551 11.4809 16.2811 11.4223 16.4198C11.3636 16.5584 11.3335 16.7071 11.3335 16.8571C11.3335 17.0832 11.4019 17.3041 11.5301 17.4921C11.6583 17.68 11.8405 17.8265 12.0536 17.913C12.2668 17.9995 12.5014 18.0221 12.7277 17.978C12.954 17.9339 13.1619 17.8251 13.325 17.6653C13.4882 17.5054 13.5993 17.3018 13.6443 17.0801C13.6893 16.8584 13.6662 16.6286 13.5779 16.4198C13.4896 16.211 13.3401 16.0325 13.1482 15.9069Z' />
    </symbol>
    <symbol id='volume' viewBox="0 -960 960 960">
      <path d="M160-200h160v-320H160v320Zm240 0h160v-560H400v560Zm240 0h160v-240H640v240ZM80-120v-480h240v-240h320v320h240v400H80Z"/>
    </symbol>
</svg>
